<svg version="1.1" id="Layer_1" xmlns="http://www.w3.org/2000/svg" xmlns:xlink="http://www.w3.org/1999/xlink" x="0px" y="0px"
	 width="100%" viewBox="0 0 2803 1095" enable-background="new 0 0 2803 1095" xml:space="preserve">
<path fill="#000000" opacity="1.000000" stroke="none" 
	d="
M2804.000000,2.000000 
	C2804.000000,366.637695 2804.000000,731.275391 2804.000000,1095.956543 
	C1869.769897,1095.956543 935.539734,1095.956543 1.000000,1095.956543 
	C1.000000,731.631836 1.000000,367.263550 1.438477,2.447676 
	C935.917969,2.000059 1869.958984,2.000030 2804.000000,2.000000 
M2273.552002,914.500366 
	C2273.552002,821.112488 2273.552002,727.724670 2273.552002,633.467590 
	C2283.255127,634.159363 2292.388916,633.809998 2301.064941,635.635803 
	C2319.566895,639.529480 2333.338867,650.815125 2341.826416,667.403381 
	C2349.443359,682.289978 2356.422852,697.659973 2361.977783,713.418030 
	C2395.321289,808.005981 2428.206055,902.755798 2461.082275,997.507629 
	C2462.587402,1001.846069 2464.479004,1003.136963 2469.069580,1003.124084 
	C2533.560303,1002.943176 2598.051514,1003.001160 2662.542725,1003.001038 
	C2664.283447,1003.001038 2666.024170,1003.001038 2668.118408,1003.001038 
	C2667.759277,1001.776978 2667.597168,1001.153564 2667.394531,1000.543701 
	C2642.730957,926.338745 2617.491211,852.318542 2593.615723,777.860901 
	C2579.645020,734.292542 2562.145264,692.546753 2538.837891,653.176636 
	C2529.825928,637.953552 2518.334473,625.348328 2503.362549,615.963867 
	C2496.884033,611.903015 2490.261719,608.071350 2483.711914,604.123962 
	C2482.537354,603.416077 2481.397217,602.651184 2479.777588,601.616577 
	C2482.734619,600.502380 2484.903320,599.667297 2487.084473,598.866028 
	C2521.266113,586.309082 2548.601807,565.012939 2569.414551,535.099121 
	C2600.107910,490.984131 2614.395508,441.391998 2618.854736,388.496429 
	C2621.915771,352.185394 2621.205811,315.939056 2615.921387,279.843506 
	C2610.352539,241.806885 2599.106445,205.731140 2579.087402,172.619736 
	C2558.318604,138.268921 2529.216064,115.137833 2489.976562,105.265594 
	C2461.556641,98.115402 2432.639648,95.097076 2403.419678,95.063889 
	C2300.933838,94.947495 2198.448242,95.006401 2095.962402,94.998772 
	C2094.508545,94.998665 2093.054443,94.998764 2091.391846,94.998764 
	C2091.391846,397.819305 2091.391846,700.184326 2091.391846,1002.706543 
	C2152.147461,1002.706543 2212.683838,1002.706543 2273.551758,1002.706543 
	C2273.551758,973.442078 2273.551758,944.471252 2273.552002,914.500366 
M1257.529907,143.939636 
	C1252.018433,129.155640 1246.367188,114.421204 1241.097168,99.551651 
	C1239.828979,95.973503 1238.218384,94.895264 1234.434326,94.903358 
	C1171.268066,95.038551 1108.101196,94.999596 1044.934570,94.999435 
	C1043.330322,94.999435 1041.726074,94.999435 1039.532104,94.999435 
	C1040.436035,97.217102 1041.091675,98.879631 1041.787598,100.525101 
	C1101.699463,242.189178 1161.605835,383.855621 1221.589844,525.489197 
	C1222.851929,528.468933 1222.998047,530.877808 1221.690918,533.929382 
	C1160.861084,675.937195 1100.119141,817.982544 1039.373901,960.026611 
	C1033.315186,974.194214 1027.300781,988.380920 1021.138733,1002.857422 
	C1088.933594,1002.857422 1156.229614,1002.857422 1223.794189,1002.857422 
	C1262.253906,906.070679 1300.725220,809.255005 1339.433716,711.842224 
	C1340.192993,713.624512 1340.670898,714.680542 1341.097290,715.756897 
	C1378.417603,809.944336 1415.750366,904.126831 1452.984253,998.348389 
	C1454.302124,1001.683472 1455.767212,1003.114075 1459.650391,1003.105286 
	C1524.316650,1002.959045 1588.983521,1003.000916 1653.650146,1003.000854 
	C1655.102417,1003.000793 1656.554688,1003.000854 1658.697021,1003.000854 
	C1657.730347,1000.666199 1657.005615,998.870300 1656.246460,997.089050 
	C1591.258789,844.585938 1526.280151,692.078918 1461.204468,539.613403 
	C1459.704224,536.098816 1459.774292,533.211243 1461.208496,529.757568 
	C1520.190796,387.716614 1579.098389,245.644592 1638.016357,103.576920 
	C1639.140991,100.865257 1640.277588,98.158562 1641.473145,95.294922 
	C1575.074341,95.294922 1509.305420,95.294922 1443.625000,95.294922 
	C1410.205811,187.885452 1376.891113,280.186310 1343.062256,373.911926 
	C1314.272217,296.475739 1286.050903,220.569077 1257.529907,143.939636 
M547.499329,290.084778 
	C553.575256,290.084778 559.651245,290.084778 565.656738,290.084778 
	C565.656738,224.680435 565.656738,160.071732 565.656738,95.298798 
	C416.225159,95.298798 267.002808,95.298798 117.988937,95.298798 
	C117.988937,397.990601 117.988937,700.382935 117.988937,1002.728394 
	C178.741013,1002.728394 239.159943,1002.728394 300.071411,1002.728394 
	C300.071411,879.076050 300.071411,755.695129 300.071411,631.889404 
	C375.962738,631.889404 451.361420,631.889404 526.696716,631.889404 
	C526.696716,570.721069 526.696716,509.979767 526.696716,448.857788 
	C450.995483,448.857788 375.578918,448.857788 300.233154,448.857788 
	C300.233154,395.754852 300.233154,343.034363 300.233154,290.084778 
	C382.544830,290.084778 464.522186,290.084778 547.499329,290.084778 
M829.500000,94.999039 
	C792.748047,94.999039 755.996094,94.999039 719.403809,94.999039 
	C719.403809,398.058899 719.403809,700.447327 719.403809,1002.754150 
	C780.004150,1002.754150 840.270508,1002.754150 900.648804,1002.754150 
	C900.648804,700.120544 900.648804,397.733948 900.648804,94.999039 
	C877.097717,94.999039 853.798828,94.999039 829.500000,94.999039 
M1872.500000,770.084839 
	C1902.235718,770.084839 1931.971436,770.084839 1961.572632,770.084839 
	C1961.572632,704.635315 1961.572632,639.915344 1961.572632,575.342041 
	C1882.531616,575.342041 1803.819946,575.342041 1725.298096,575.342041 
	C1725.298096,640.422485 1725.298096,705.160156 1725.298096,770.084839 
	C1774.230591,770.084839 1822.865234,770.084839 1872.500000,770.084839 
z"/>
<path fill="#171717" opacity="1.000000" stroke="none" 
	d="
M2804.000000,1.500000 
	C1869.958984,2.000030 935.917969,2.000059 1.438477,2.000044 
	C1.166667,1.666667 1.315919,1.056198 1.502793,1.044456 
	C2.830883,0.961004 4.166667,1.000000 5.500000,1.000000 
	C938.333313,1.000000 1871.166626,1.000000 2804.000000,1.500000 
z"/>
<path fill="#FEFEFE" opacity="1.000000" stroke="none" 
	d="
M2273.551758,915.000366 
	C2273.551758,944.471252 2273.551758,973.442078 2273.551758,1002.706543 
	C2212.683838,1002.706543 2152.147461,1002.706543 2091.391846,1002.706543 
	C2091.391846,700.184326 2091.391846,397.819305 2091.391846,94.998764 
	C2093.054443,94.998764 2094.508545,94.998665 2095.962402,94.998772 
	C2198.448242,95.006401 2300.933838,94.947495 2403.419678,95.063889 
	C2432.639648,95.097076 2461.556641,98.115402 2489.976562,105.265594 
	C2529.216064,115.137833 2558.318604,138.268921 2579.087402,172.619736 
	C2599.106445,205.731140 2610.352539,241.806885 2615.921387,279.843506 
	C2621.205811,315.939056 2621.915771,352.185394 2618.854736,388.496429 
	C2614.395508,441.391998 2600.107910,490.984131 2569.414551,535.099121 
	C2548.601807,565.012939 2521.266113,586.309082 2487.084473,598.866028 
	C2484.903320,599.667297 2482.734619,600.502380 2479.777588,601.616577 
	C2481.397217,602.651184 2482.537354,603.416077 2483.711914,604.123962 
	C2490.261719,608.071350 2496.884033,611.903015 2503.362549,615.963867 
	C2518.334473,625.348328 2529.825928,637.953552 2538.837891,653.176636 
	C2562.145264,692.546753 2579.645020,734.292542 2593.615723,777.860901 
	C2617.491211,852.318542 2642.730957,926.338745 2667.394531,1000.543701 
	C2667.597168,1001.153564 2667.759277,1001.776978 2668.118408,1003.001038 
	C2666.024170,1003.001038 2664.283447,1003.001038 2662.542725,1003.001038 
	C2598.051514,1003.001160 2533.560303,1002.943176 2469.069580,1003.124084 
	C2464.479004,1003.136963 2462.587402,1001.846069 2461.082275,997.507629 
	C2428.206055,902.755798 2395.321289,808.005981 2361.977783,713.418030 
	C2356.422852,697.659973 2349.443359,682.289978 2341.826416,667.403381 
	C2333.338867,650.815125 2319.566895,639.529480 2301.064941,635.635803 
	C2292.388916,633.809998 2283.255127,634.159363 2273.552002,633.467590 
	C2273.552002,727.724670 2273.552002,821.112488 2273.551758,915.000366 
M2273.550781,285.530762 
	C2273.550781,344.259003 2273.550781,402.987274 2273.550781,462.000397 
	C2292.258789,462.000397 2310.430420,461.315613 2328.528809,462.176300 
	C2350.425293,463.217590 2370.931641,458.193512 2391.593994,451.838470 
	C2409.501221,446.330811 2421.093018,435.022583 2428.169434,418.446136 
	C2442.091797,385.833008 2441.568848,352.709381 2430.267334,319.610260 
	C2423.256592,299.077423 2408.504639,286.357452 2387.304932,282.077271 
	C2376.279297,279.851257 2364.923096,278.504211 2353.683105,278.256287 
	C2328.537598,277.701538 2303.371582,278.084106 2278.213867,278.084900 
	C2276.754883,278.084930 2275.295898,278.084900 2273.551025,278.084900 
	C2273.551025,280.572327 2273.551025,282.554749 2273.550781,285.530762 
z"/>
<path fill="#FFFFFF" opacity="1.000000" stroke="none" 
	d="
M1257.679688,144.301025 
	C1286.050903,220.569077 1314.272217,296.475739 1343.062256,373.911926 
	C1376.891113,280.186310 1410.205811,187.885452 1443.625000,95.294922 
	C1509.305420,95.294922 1575.074341,95.294922 1641.473145,95.294922 
	C1640.277588,98.158562 1639.140991,100.865257 1638.016357,103.576920 
	C1579.098389,245.644592 1520.190796,387.716614 1461.208496,529.757568 
	C1459.774292,533.211243 1459.704224,536.098816 1461.204468,539.613403 
	C1526.280151,692.078918 1591.258789,844.585938 1656.246460,997.089050 
	C1657.005615,998.870300 1657.730347,1000.666199 1658.697021,1003.000854 
	C1656.554688,1003.000854 1655.102417,1003.000793 1653.650146,1003.000854 
	C1588.983521,1003.000916 1524.316650,1002.959045 1459.650391,1003.105286 
	C1455.767212,1003.114075 1454.302124,1001.683472 1452.984253,998.348389 
	C1415.750366,904.126831 1378.417603,809.944336 1341.097290,715.756897 
	C1340.670898,714.680542 1340.192993,713.624512 1339.433716,711.842224 
	C1300.725220,809.255005 1262.253906,906.070679 1223.794189,1002.857422 
	C1156.229614,1002.857422 1088.933594,1002.857422 1021.138733,1002.857422 
	C1027.300781,988.380920 1033.315186,974.194214 1039.373901,960.026611 
	C1100.119141,817.982544 1160.861084,675.937195 1221.690918,533.929382 
	C1222.998047,530.877808 1222.851929,528.468933 1221.589844,525.489197 
	C1161.605835,383.855621 1101.699463,242.189178 1041.787598,100.525101 
	C1041.091675,98.879631 1040.436035,97.217102 1039.532104,94.999435 
	C1041.726074,94.999435 1043.330322,94.999435 1044.934570,94.999435 
	C1108.101196,94.999596 1171.268066,95.038551 1234.434326,94.903358 
	C1238.218384,94.895264 1239.828979,95.973503 1241.097168,99.551651 
	C1246.367188,114.421204 1252.018433,129.155640 1257.679688,144.301025 
z"/>
<path fill="#FFFFFF" opacity="1.000000" stroke="none" 
	d="
M546.999390,290.084778 
	C464.522186,290.084778 382.544830,290.084778 300.233154,290.084778 
	C300.233154,343.034363 300.233154,395.754852 300.233154,448.857788 
	C375.578918,448.857788 450.995483,448.857788 526.696716,448.857788 
	C526.696716,509.979767 526.696716,570.721069 526.696716,631.889404 
	C451.361420,631.889404 375.962738,631.889404 300.071411,631.889404 
	C300.071411,755.695129 300.071411,879.076050 300.071411,1002.728394 
	C239.159943,1002.728394 178.741013,1002.728394 117.988937,1002.728394 
	C117.988937,700.382935 117.988937,397.990601 117.988937,95.298798 
	C267.002808,95.298798 416.225159,95.298798 565.656738,95.298798 
	C565.656738,160.071732 565.656738,224.680435 565.656738,290.084778 
	C559.651245,290.084778 553.575256,290.084778 546.999390,290.084778 
z"/>
<path fill="#FFFFFF" opacity="1.000000" stroke="none" 
	d="
M830.000000,94.999039 
	C853.798828,94.999039 877.097717,94.999039 900.648804,94.999039 
	C900.648804,397.733948 900.648804,700.120544 900.648804,1002.754150 
	C840.270508,1002.754150 780.004150,1002.754150 719.403809,1002.754150 
	C719.403809,700.447327 719.403809,398.058899 719.403809,94.999039 
	C755.996094,94.999039 792.748047,94.999039 830.000000,94.999039 
z"/>
<path fill="#FFFFFF" opacity="1.000000" stroke="none" 
	d="
M1872.000000,770.084839 
	C1822.865234,770.084839 1774.230591,770.084839 1725.298096,770.084839 
	C1725.298096,705.160156 1725.298096,640.422485 1725.298096,575.342041 
	C1803.819946,575.342041 1882.531616,575.342041 1961.572632,575.342041 
	C1961.572632,639.915344 1961.572632,704.635315 1961.572632,770.084839 
	C1931.971436,770.084839 1902.235718,770.084839 1872.000000,770.084839 
z"/>
<path fill="#000000" opacity="1.000000" stroke="none" 
	d="
M2273.550781,285.033966 
	C2273.551025,282.554749 2273.551025,280.572327 2273.551025,278.084900 
	C2275.295898,278.084900 2276.754883,278.084930 2278.213867,278.084900 
	C2303.371582,278.084106 2328.537598,277.701538 2353.683105,278.256287 
	C2364.923096,278.504211 2376.279297,279.851257 2387.304932,282.077271 
	C2408.504639,286.357452 2423.256592,299.077423 2430.267334,319.610260 
	C2441.568848,352.709381 2442.091797,385.833008 2428.169434,418.446136 
	C2421.093018,435.022583 2409.501221,446.330811 2391.593994,451.838470 
	C2370.931641,458.193512 2350.425293,463.217590 2328.528809,462.176300 
	C2310.430420,461.315613 2292.258789,462.000397 2273.550781,462.000397 
	C2273.550781,402.987274 2273.550781,344.259003 2273.550781,285.033966 
z"/>
</svg>